# xmcd
#
# Track frame offsets: 
#        150
#        35508
#        86864
#        107792
#        193102
#        223335
#        268845
#        294939
#
# Disc length: 4626 seconds
#
# Revision: 1
# Processed by: cddbd v1.5.2PL0 Copyright (c) Steve Scherf et al.
# Submitted via: ExactAudioCopy v1.3
#
DISCID=7e121008
DTITLE=Various Artist - Spiritual Jazz Volume 8 Japan [Disc 2]
DYEAR=2018
DGENRE=Jazz
TTITLE0=フォー・ユニッツ - スカボロー・フェア
TTITLE1=相澤徹カルテット - サクラメント
TTITLE2=三保敬とジャズ・イレヴン - こけざる
TTITLE3=ティー and カンパニー - スパニッシュ・フラワー
TTITLE4=森山威男 - 渡良瀬
TTITLE5=杉本喜代志クインテット - バビロニア・ウインド
TTITLE6=秋吉敏子 - 木更津甚句
TTITLE7=池田芳夫クインテット - ウィスパーリング・ウィード
EXTD=
EXTT0=
EXTT1=
EXTT2=
EXTT3=
EXTT4=
EXTT5=
EXTT6=
EXTT7=
PLAYORDER=
